# xmcd
# 
# Track frame offsets:
#     150
#     42492
#     63788
#     90849
#     116374
#     149961
#     178409
#     207633
#     275629
# 
# Disc length: 4400
# 
# Revision: 3
# Processed by: cddbd v1.5.2PL0 Copyright (c) Steve Scherf et al.
# Submitted via: fre:ac v1.0.17
# 
DISCID=8d112e09
DTITLE=Hobo - Amerikai ima
DYEAR=1996
DGENRE=Blues
TTITLE0=Ébredés - VÁNDOR AZ ÚTON - Te mit csinálsz itt?
TTITLE1=SZERESS KÉTSZER - Hölgyeim és uraim - A félelem
TTITLE2=SPANYOL KARAVÁN - A szeánsz
TTITLE3=MISS MAGGIE M'GILL - Szirének
TTITLE4=VAD SZERELMEM - A keresztutak
TTITLE5=A MÁSIK OLDALRA TÖRJÜNK ÁT - A legjobb ötleteim - Az erő - Átkok, könyörgések
TTITLE6=LOBBANTS LÁNGRA - Átdöfve a füstöt
TTITLE7=AMERIKAI IMA - Ahogy visszatekintek
TTITLE8=A VÉG - Úti napok - Paris Journal
EXTD=
EXTT0=
EXTT1=
EXTT2=
EXTT3=
EXTT4=
EXTT5=
EXTT6=
EXTT7=
EXTT8=
PLAYORDER=
